Coordinates
version=1
nRows=23
nColumns=34
inDegrees=no

Units are S.I. units (second, meters, Newtons, ...)
If the header above contains a line with 'inDegrees', this indicates whether rotational values are in degrees (yes) or radians (no).

endheader
time	pelvis_tilt	pelvis_list	pelvis_rotation	pelvis_tx	pelvis_ty	pelvis_tz	hip_flexion_r	hip_adduction_r	hip_rotation_r	knee_angle_r	ankle_angle_r	subtalar_angle_r	mtp_angle_r	hip_flexion_l	hip_adduction_l	hip_rotation_l	knee_angle_l	ankle_angle_l	subtalar_angle_l	mtp_angle_l	lumbar_extension	lumbar_bending	lumbar_rotation	arm_flex_r	arm_add_r	arm_rot_r	elbow_flex_r	pro_sup_r	arm_flex_l	arm_add_l	arm_rot_l	elbow_flex_l	pro_sup_l
0.45	0.0412379	-0.0219403	-0.0518152	0.430876	0.954366	-0.178844	-0.102393	0.050785	0.0295327	0.209949	0.493244	0.372887	0	0.401023	-0.111088	0.328286	0.092326	0.157231	0.168143	0	-0.150912	0.0394981	0.0334636	-0.104445	-0.206074	-0.197042	0.837748	2.09	-0.312369	-0.0906695	-0.500247	0.434012	2.09
0.46	0.0450144	-0.0232418	-0.0544411	0.442629	0.952819	-0.179441	-0.1259	0.0499258	0.0338282	0.200503	0.501209	0.371567	0	0.402519	-0.112284	0.329797	0.0810446	0.151735	0.155322	0	-0.156775	0.0409609	0.0348378	-0.0983222	-0.205086	-0.20064	0.843665	2.09	-0.312783	-0.0905681	-0.504032	0.435253	2.09
0.47	0.0482144	-0.0238926	-0.0567026	0.454526	0.951194	-0.180122	-0.149526	0.0482241	0.0386555	0.1898	0.507862	0.368472	0	0.404511	-0.111967	0.330718	0.074104	0.146892	0.143624	0	-0.161576	0.0416443	0.0358866	-0.092855	-0.203632	-0.204612	0.848507	2.09	-0.31298	-0.0907925	-0.507508	0.437265	2.09
0.48	0.050524	-0.0239417	-0.0588657	0.46656	0.949467	-0.180872	-0.172491	0.0457425	0.044073	0.178611	0.513253	0.363798	0	0.407281	-0.110369	0.330131	0.0714256	0.143412	0.135207	0	-0.16496	0.0416131	0.0369946	-0.0881925	-0.201908	-0.208729	0.852297	2.09	-0.312957	-0.0913167	-0.510596	0.440073	2.09
0.49	0.0517912	-0.0234379	-0.0612038	0.478728	0.947626	-0.181678	-0.194215	0.0425359	0.0502407	0.167687	0.517445	0.357715	0	0.410852	-0.1077	0.327489	0.0727863	0.141712	0.131127	0	-0.166771	0.0409128	0.0385188	-0.0844363	-0.200098	-0.212751	0.855066	2.09	-0.312708	-0.0920909	-0.513284	0.443594	2.09
0.5	0.0520387	-0.0224617	-0.0639695	0.491036	0.945682	-0.18252	-0.214365	0.0386838	0.0573202	0.1577	0.52049	0.350424	0	0.415013	-0.104203	0.322399	0.0778873	0.142109	0.131848	0	-0.167066	0.0396019	0.0407492	-0.0816339	-0.198353	-0.216439	0.856854	2.09	-0.312222	-0.0930522	-0.515618	0.447638	2.09
0.51	0.0514176	-0.0210987	-0.0673857	0.503496	0.943662	-0.183374	-0.232821	0.0342601	0.0653509	0.149204	0.522465	0.342233	0	0.419388	-0.100139	0.314594	0.0863564	0.144806	0.137416	0	-0.166047	0.0377244	0.0438848	-0.0797861	-0.196773	-0.21957	0.857708	2.09	-0.311498	-0.0941327	-0.51772	0.451988	2.09
0.52	0.0502905	-0.0196429	-0.0715333	0.516127	0.941624	-0.184217	-0.250168	0.0295821	0.0747951	0.14189	0.522902	0.332673	0	0.423323	-0.0959614	0.304118	0.0976661	0.149721	0.147514	0	-0.164164	0.0355453	0.0479831	-0.0788441	-0.195428	-0.221966	0.857652	2.09	-0.310505	-0.095247	-0.519727	0.456423	2.09
0.53	0.0485815	-0.0176949	-0.0767113	0.528934	0.939551	-0.18502	-0.265445	0.0241877	0.0846796	0.13737	0.522763	0.323172	0	0.426667	-0.0915209	0.290953	0.111227	0.156112	0.16108	0	-0.16132	0.0325631	0.0531024	-0.0787931	-0.194244	-0.223481	0.856809	2.09	-0.309413	-0.0963872	-0.521865	0.461032	2.09
0.54	0.0465328	-0.0155585	-0.0828605	0.541923	0.937494	-0.185758	-0.279293	0.0185058	0.0961717	0.134946	0.521198	0.311931	0	0.429243	-0.0874016	0.273182	0.126758	0.163801	0.180966	0	-0.157821	0.0290528	0.0591009	-0.0795381	-0.193185	-0.224062	0.85519	2.09	-0.308242	-0.0974837	-0.524362	0.465857	2.09
0.55	0.0443863	-0.0137236	-0.0896793	0.555112	0.935501	-0.186389	-0.294348	0.0142294	0.125463	0.130371	0.511658	0.275107	0	0.43109	-0.0844955	0.247945	0.144104	0.172585	0.212092	0	-0.153935	0.0254235	0.0653733	-0.0807852	-0.192179	-0.223279	0.852554	2.09	-0.307214	-0.0982793	-0.528709	0.471413	2.09
0.56	0.0420252	-0.0104783	-0.0973977	0.568491	0.933575	-0.187087	-0.303926	0.00641905	0.127516	0.135227	0.511087	0.277415	0	0.429797	-0.0793351	0.237767	0.158314	0.169594	0.21669	0	-0.149388	0.0202095	0.072602	-0.0832474	-0.191225	-0.222454	0.849803	2.09	-0.305839	-0.0997134	-0.529488	0.475933	2.09
0.57	0.0394608	-0.00674828	-0.10545	0.582023	0.931752	-0.187766	-0.311579	-0.00201346	0.128019	0.14304	0.509393	0.28165	0	0.42768	-0.0739963	0.225282	0.172183	0.161779	0.22364	0	-0.144294	0.0141532	0.0795134	-0.0860306	-0.19019	-0.220492	0.846028	2.09	-0.304524	-0.100921	-0.531799	0.480924	2.09
0.58	0.0365935	-0.00217805	-0.113468	0.595684	0.930058	-0.188477	-0.31664	-0.0114288	0.125847	0.154656	0.506755	0.289184	0	0.42512	-0.0677346	0.213037	0.185337	0.147816	0.22903	0	-0.138498	0.00699242	0.085832	-0.0892058	-0.18895	-0.217774	0.841321	2.09	-0.303081	-0.102295	-0.533943	0.485628	2.09
0.59	0.0337694	0.00304606	-0.120752	0.609464	0.9286	-0.189281	-0.319863	-0.0216214	0.120977	0.169268	0.502002	0.299772	0	0.422317	-0.0602389	0.202342	0.198261	0.128958	0.231734	0	-0.132421	-0.000992033	0.0909232	-0.0926305	-0.187435	-0.214528	0.835528	2.09	-0.301229	-0.103931	-0.53548	0.489494	2.09
0.6	0.0309959	0.00920835	-0.126824	0.623336	0.927423	-0.190228	-0.320698	-0.0328127	0.11309	0.187753	0.494828	0.313679	0	0.420162	-0.0508844	0.19328	0.212407	0.108637	0.232173	0	-0.126082	-0.0100314	0.0942778	-0.0962222	-0.185498	-0.211	0.82861	2.09	-0.298795	-0.105944	-0.536166	0.492206	2.09
0.61	0.0282217	0.0164985	-0.13124	0.637276	0.926575	-0.19137	-0.31819	-0.0455677	0.0984646	0.211582	0.485935	0.336227	0	0.419676	-0.0392703	0.18526	0.229704	0.0914406	0.232035	0	-0.119455	-0.0202342	0.0954782	-0.0999715	-0.183043	-0.207422	0.82058	2.09	-0.295615	-0.108399	-0.535807	0.493555	2.09
0.62	0.0256072	0.0246196	-0.133534	0.651283	0.926114	-0.192739	-0.312832	-0.0592408	0.0813022	0.240206	0.472892	0.361069	0	0.421207	-0.0255465	0.178313	0.251602	0.0816041	0.232767	0	-0.112817	-0.0312094	0.0942813	-0.104088	-0.179979	-0.204374	0.811821	2.09	-0.291502	-0.111355	-0.534022	0.493447	2.09
0.63	0.022994	0.0335058	-0.133622	0.665344	0.926046	-0.194355	-0.303546	-0.0743927	0.0585961	0.275147	0.456106	0.392616	0	0.424843	-0.00995844	0.171921	0.278281	0.0812146	0.235709	0	-0.10605	-0.0427915	0.0907439	-0.108797	-0.176341	-0.202099	0.802665	2.09	-0.286455	-0.11478	-0.530681	0.492075	2.09
0.64	0.0209261	0.0424929	-0.131538	0.679475	0.926436	-0.196188	-0.291981	-0.0891836	0.0402623	0.314499	0.431452	0.415832	0	0.428629	0.00687341	0.168035	0.307581	0.0889754	0.238241	0	-0.0998876	-0.0543096	0.0850964	-0.11428	-0.172206	-0.200893	0.793545	2.09	-0.280434	-0.118598	-0.525698	0.489743	2.09
0.65	0.0192172	0.0515438	-0.127659	0.693647	0.927245	-0.198232	-0.276694	-0.104611	0.0211877	0.360132	0.400207	0.437858	0	0.431252	0.0245505	0.166521	0.336526	0.102389	0.240131	0	-0.0941622	-0.0656243	0.0778251	-0.120699	-0.167751	-0.200773	0.784804	2.09	-0.273557	-0.122732	-0.518812	0.486813	2.09
0.66	0.0177714	0.0609241	-0.122406	0.707822	0.928421	-0.200487	-0.256858	-0.122174	-0.00151127	0.412901	0.362713	0.462582	0	0.431144	0.0431643	0.167961	0.361634	0.117863	0.239587	0	-0.088758	-0.0769329	0.0693913	-0.128073	-0.163135	-0.201675	0.776663	2.09	-0.265969	-0.127139	-0.509689	0.48367	2.09
0.67	0.017813	0.0690677	-0.116417	0.721946	0.930071	-0.20279	-0.235921	-0.136291	-0.00998776	0.468347	0.313298	0.461937	0	0.425418	0.060755	0.172616	0.380143	0.133144	0.236306	0	-0.0853655	-0.0868265	0.0602499	-0.135735	-0.158598	-0.203053	0.768849	2.09	-0.257562	-0.131518	-0.499214	0.480916	2.09
